<?xml version="1.0" encoding="UTF-8" standalone="no"?>
<!-- Created with Inkscape (http://www.inkscape.org/) -->

<svg
   width="64mm"
   height="64mm"
   viewBox="0 0 64.000003 64.000001"
   version="1.1"
   id="svg5"
   inkscape:version="1.1 (ce6663b3b7, 2021-05-25)"
   sodipodi:docname="icon_eye.svg"
   inkscape:export-filename="/home/sabudoff/github/NRSC7657_Project/Assets/Icons/eye_icon.png"
   inkscape:export-xdpi="19.84375"
   inkscape:export-ydpi="19.84375"
   xmlns:inkscape="http://www.inkscape.org/namespaces/inkscape"
   xmlns:sodipodi="http://sodipodi.sourceforge.net/DTD/sodipodi-0.dtd"
   xmlns:xlink="http://www.w3.org/1999/xlink"
   xmlns="http://www.w3.org/2000/svg"
   xmlns:svg="http://www.w3.org/2000/svg">
  <sodipodi:namedview
     id="namedview7"
     pagecolor="#ffffff"
     bordercolor="#666666"
     borderopacity="1.0"
     inkscape:pageshadow="2"
     inkscape:pageopacity="0.0"
     inkscape:pagecheckerboard="0"
     inkscape:document-units="mm"
     showgrid="false"
     inkscape:zoom="2.1997092"
     inkscape:cx="91.603017"
     inkscape:cy="110.24184"
     inkscape:window-width="1222"
     inkscape:window-height="656"
     inkscape:window-x="800"
     inkscape:window-y="27"
     inkscape:window-maximized="1"
     inkscape:current-layer="g14602" />
  <defs
     id="defs2">
    <inkscape:path-effect
       effect="powerclip"
       id="path-effect15963"
       is_visible="true"
       lpeversion="1"
       inverse="true"
       flatten="false"
       hide_clip="false"
       message="Use fill-rule evenodd on &lt;b&gt;fill and stroke&lt;/b&gt; dialog if no flatten result after convert clip to paths." />
    <inkscape:path-effect
       effect="powerclip"
       id="path-effect15408"
       is_visible="true"
       lpeversion="1"
       inverse="true"
       flatten="false"
       hide_clip="false"
       message="Use fill-rule evenodd on &lt;b&gt;fill and stroke&lt;/b&gt; dialog if no flatten result after convert clip to paths." />
    <linearGradient
       inkscape:collect="always"
       id="linearGradient11988">
      <stop
         style="stop-color:#eae3c3;stop-opacity:0"
         offset="0"
         id="stop11984" />
      <stop
         style="stop-color:#62552d;stop-opacity:1"
         offset="1"
         id="stop11986" />
    </linearGradient>
    <radialGradient
       inkscape:collect="always"
       xlink:href="#linearGradient11988"
       id="radialGradient11498"
       gradientUnits="userSpaceOnUse"
       gradientTransform="matrix(1.0245659,-0.0273954,0.0227303,0.84955599,-165.09703,-3.0676512)"
       cx="365.90695"
       cy="-35.438076"
       fx="365.90695"
       fy="-35.438076"
       r="44.338203"
       spreadMethod="pad" />
    <filter
       inkscape:collect="always"
       style="color-interpolation-filters:sRGB"
       id="filter13362"
       x="-0.14671987"
       y="-0.19437869"
       width="1.2934397"
       height="1.3887574">
      <feGaussianBlur
         inkscape:collect="always"
         stdDeviation="4.7838462"
         id="feGaussianBlur13364" />
    </filter>
    <clipPath
       clipPathUnits="userSpaceOnUse"
       id="clipPath15959">
      <path
         id="path15961"
         style="display:none;fill:#95ffff;fill-opacity:0.988235;stroke:none;stroke-width:3.165;stroke-miterlimit:4;stroke-dasharray:none;stroke-opacity:0.988235"
         d="M 228.7381,-233.03687 V -85.462418 H 512.50112 V -233.03687 Z m 153.99058,45.13575 c 20.82432,0 33.9173,6.3478 46.70724,9.40614 26.18494,6.26137 40.14131,12.08835 39.81564,14.95878 -0.20693,1.82409 -10.96005,6.75302 -27.45827,13.79502 -14.79273,6.31404 -33.59796,14.90503 -63.59766,14.90503 -6.55269,-0.0623 -17.76699,-1.28308 -32.33343,-3.45974 -9.65302,-1.44244 -17.53684,-5.24642 -28.68766,-6.35155 -10.07891,-0.99889 -23.65253,-1.92585 -28.56311,-1.62677 -9.98953,0.60842 -17.10967,-0.78447 -17.56068,-2.43603 0,-12.22357 48.21978,-39.19088 111.67793,-39.19088 z"
         inkscape:label="Eyelid_clip"
         mask="none" />
      <path
         id="lpe_path-effect15963"
         style="display:block;fill:#95ffff;fill-opacity:0.988235;stroke:none;stroke-width:3.165;stroke-miterlimit:4;stroke-dasharray:none;stroke-opacity:0.988235"
         class="powerclip"
         d="m 246.55086,-207.71468 h 241.02858 v 98.02887 H 246.55086 Z M 228.7381,-233.03687 V -85.462418 H 512.50112 V -233.03687 Z m 153.99058,45.13575 c -63.45815,0 -111.67793,26.96731 -111.67793,39.19088 0.45101,1.65156 7.57115,3.04445 17.56068,2.43603 4.91058,-0.29908 18.4842,0.62788 28.56311,1.62677 11.15082,1.10513 19.03464,4.90911 28.68766,6.35155 14.56644,2.17666 25.78074,3.39744 32.33343,3.45974 29.9997,0 48.80493,-8.59099 63.59766,-14.90503 16.49822,-7.042 27.25134,-11.97093 27.45827,-13.79502 0.32567,-2.87043 -13.6307,-8.69741 -39.81564,-14.95878 -12.78994,-3.05834 -25.88292,-9.40614 -46.70724,-9.40614 z" />
    </clipPath>
    <clipPath
       clipPathUnits="userSpaceOnUse"
       id="clipPath1775">
      <ellipse
         style="display:inline;opacity:0.27784;fill:#21ffff;fill-opacity:0.988235;stroke:none;stroke-width:9.86502;stroke-miterlimit:4;stroke-dasharray:none;stroke-opacity:0.988235"
         id="ellipse1777"
         cx="210.14323"
         cy="-34.938416"
         rx="116.63888"
         ry="75.456032" />
    </clipPath>
  </defs>
  <g
     inkscape:groupmode="layer"
     id="layer3"
     inkscape:label="Eyeball"
     style="display:inline"
     transform="translate(-95.322749,110.16569)">
    <ellipse
       style="display:inline;opacity:0.27784;fill:#21ffff;fill-opacity:0.988235;stroke:none;stroke-width:9.86503;stroke-miterlimit:4;stroke-dasharray:none;stroke-opacity:0.988235"
       id="ellipse15468"
       cx="127.64983"
       cy="-77.188118"
       rx="31.672916"
       ry="31.022427" />
    <g
       id="g15303"
       inkscape:label="Eye"
       clip-path="url(#clipPath1775)"
       style="display:inline;stroke-width:2.99286"
       transform="matrix(0.27154682,0,0,0.4111325,69.931938,-64.778945)">
      <g
         id="g15281"
         transform="translate(-160.29901,123.84291)"
         inkscape:label="Globe"
         style="display:inline;stroke-width:2.99286">
        <g
           id="g15957"
           clip-path="url(#clipPath15959)"
           inkscape:path-effect="#path-effect15963"
           style="stroke-width:2.99286">
          <path
             style="opacity:1;fill:#ffffff;fill-opacity:0.988235;stroke:none;stroke-width:29.5246;stroke-miterlimit:4;stroke-dasharray:none;stroke-opacity:0.988235"
             id="rect14962"
             width="231.02858"
             height="88.02887"
             x="251.55086"
             y="-202.71468"
             inkscape:label="Sclera"
             clip-path="none"
             sodipodi:type="rect"
             d="m 251.55086,-202.71468 h 231.02858 v 88.02887 H 251.55086 Z" />
          <g
             id="g14602"
             inkscape:label="window"
             transform="translate(170.48101,-118.66977)"
             style="stroke-width:2.99286">
            <ellipse
               style="opacity:1;fill:#201823;fill-opacity:0.988235;stroke:none;stroke-width:2.28953"
               id="path2440"
               cx="208.81627"
               cy="-43.099415"
               rx="8.1930428"
               ry="7.5367999"
               inkscape:label="Pupil" />
            <ellipse
               style="opacity:1;mix-blend-mode:normal;fill:url(#radialGradient11498);fill-opacity:1;stroke:none;stroke-width:2.28953"
               id="path9854"
               cx="210.25288"
               cy="-44.76268"
               rx="44.338203"
               ry="36.371284"
               inkscape:label="Iris" />
          </g>
          <g
             id="g14598"
             inkscape:label="Light"
             transform="translate(166.19387,-125.11205)"
             style="stroke-width:2.99286">
            <ellipse
               style="opacity:1;mix-blend-mode:normal;fill:#ffffff;fill-opacity:0.988235;stroke:none;stroke-width:10.8532;stroke-miterlimit:4;stroke-dasharray:none;stroke-opacity:0.988235;filter:url(#filter13362)"
               id="path13280"
               cx="261.0798"
               cy="-41.993404"
               rx="39.126369"
               ry="29.533154"
               transform="matrix(0.85227056,0,0,0.89377216,26.228269,0.31143978)" />
            <ellipse
               style="opacity:1;fill:#ffffff;fill-opacity:0.988235;stroke:none;stroke-width:9.47242;stroke-miterlimit:4;stroke-dasharray:none;stroke-opacity:0.988235"
               id="path14162"
               cx="246.7995"
               cy="-41.504803"
               rx="7.379343"
               ry="6.7693377" />
          </g>
        </g>
      </g>
      <g
         id="g15259"
         clip-path="none"
         inkscape:label="Eyelid"
         transform="translate(-18.119777,40.470123)"
         style="display:inline;stroke-width:2.99286">
        <path
           id="rect2765"
           style="fill-opacity:0.986279;stroke:#eae3c3;stroke-width:5.88097;stroke-miterlimit:4;stroke-dasharray:none;stroke-opacity:0.988235"
           d="M 86.558868,-149.66409 V -2.0896316 H 370.32189 V -149.66409 Z m 153.990592,45.13575 c 20.82432,0 33.91729,6.347803 46.70723,9.406145 26.18494,6.261373 40.14132,12.08835 39.81564,14.958777 -0.20693,1.824093 -10.96005,6.753024 -27.45827,13.795023 -14.79272,6.314039 -33.59796,14.905033 -63.59766,14.905033 -6.55269,-0.06231 -17.76699,-1.28308 -32.33343,-3.459737 -9.65302,-1.442445 -17.53684,-5.246422 -28.68765,-6.351551 -10.07892,-0.998896 -23.65253,-1.925854 -28.56311,-1.626773 -9.98954,0.608416 -17.10968,-0.784474 -17.56069,-2.436028 0,-12.223575 48.21979,-39.190889 111.67794,-39.190889 z"
           inkscape:label="Eyelid"
           mask="none" />
        <path
           style="fill:none;stroke:#000000;stroke-width:29.5246;stroke-linecap:butt;stroke-linejoin:miter;stroke-miterlimit:4;stroke-dasharray:none;stroke-opacity:1"
           d="M 86.558853,-2.0896316 H 370.32189 V -149.66408 H 86.558853 Z"
           id="path14839"
           inkscape:label="Border" />
      </g>
    </g>
  </g>
</svg>
