<?xml version="1.0" encoding="UTF-8" standalone="no"?>
<!-- Created with Inkscape (http://www.inkscape.org/) -->

<svg
   width="121.66613mm"
   height="99.951553mm"
   viewBox="0 0 121.66613 99.95155"
   version="1.1"
   id="svg5"
   inkscape:version="1.1 (ce6663b3b7, 2021-05-25)"
   sodipodi:docname="play_eye_1.svg"
   inkscape:export-filename="/home/sabudoff/github/NRSC7657_Project/Assets/Icons/play_eye.png"
   inkscape:export-xdpi="20"
   inkscape:export-ydpi="20"
   xmlns:inkscape="http://www.inkscape.org/namespaces/inkscape"
   xmlns:sodipodi="http://sodipodi.sourceforge.net/DTD/sodipodi-0.dtd"
   xmlns:xlink="http://www.w3.org/1999/xlink"
   xmlns="http://www.w3.org/2000/svg"
   xmlns:svg="http://www.w3.org/2000/svg">
  <sodipodi:namedview
     id="namedview7"
     pagecolor="#ffffff"
     bordercolor="#666666"
     borderopacity="1.0"
     inkscape:pageshadow="2"
     inkscape:pageopacity="0.0"
     inkscape:pagecheckerboard="0"
     inkscape:document-units="mm"
     showgrid="false"
     inkscape:zoom="1.4142136"
     inkscape:cx="-30.405592"
     inkscape:cy="219.55666"
     inkscape:window-width="1222"
     inkscape:window-height="656"
     inkscape:window-x="800"
     inkscape:window-y="27"
     inkscape:window-maximized="1"
     inkscape:current-layer="g16715" />
  <defs
     id="defs2">
    <inkscape:path-effect
       effect="powerclip"
       id="path-effect19606"
       is_visible="true"
       lpeversion="1"
       inverse="true"
       flatten="false"
       hide_clip="false"
       message="Use fill-rule evenodd on &lt;b&gt;fill and stroke&lt;/b&gt; dialog if no flatten result after convert clip to paths." />
    <inkscape:path-effect
       effect="powerclip"
       id="path-effect19239"
       is_visible="true"
       lpeversion="1"
       inverse="true"
       flatten="false"
       hide_clip="false"
       message="Use fill-rule evenodd on &lt;b&gt;fill and stroke&lt;/b&gt; dialog if no flatten result after convert clip to paths." />
    <inkscape:path-effect
       effect="powerclip"
       id="path-effect19230"
       is_visible="true"
       lpeversion="1"
       inverse="true"
       flatten="false"
       hide_clip="false"
       message="Use fill-rule evenodd on &lt;b&gt;fill and stroke&lt;/b&gt; dialog if no flatten result after convert clip to paths." />
    <inkscape:path-effect
       effect="powerclip"
       id="path-effect19221"
       is_visible="true"
       lpeversion="1"
       inverse="true"
       flatten="false"
       hide_clip="false"
       message="Use fill-rule evenodd on &lt;b&gt;fill and stroke&lt;/b&gt; dialog if no flatten result after convert clip to paths." />
    <inkscape:path-effect
       effect="powerclip"
       id="path-effect19211"
       is_visible="true"
       lpeversion="1"
       inverse="true"
       flatten="false"
       hide_clip="false"
       message="Use fill-rule evenodd on &lt;b&gt;fill and stroke&lt;/b&gt; dialog if no flatten result after convert clip to paths." />
    <inkscape:path-effect
       effect="powerclip"
       id="path-effect17122"
       is_visible="true"
       lpeversion="1"
       inverse="true"
       flatten="false"
       hide_clip="false"
       message="Use fill-rule evenodd on &lt;b&gt;fill and stroke&lt;/b&gt; dialog if no flatten result after convert clip to paths." />
    <inkscape:path-effect
       effect="powerclip"
       id="path-effect17095"
       is_visible="true"
       lpeversion="1"
       inverse="true"
       flatten="false"
       hide_clip="false"
       message="Use fill-rule evenodd on &lt;b&gt;fill and stroke&lt;/b&gt; dialog if no flatten result after convert clip to paths." />
    <inkscape:path-effect
       effect="powerclip"
       id="path-effect16332"
       is_visible="true"
       lpeversion="1"
       inverse="true"
       flatten="false"
       hide_clip="false"
       message="Use fill-rule evenodd on &lt;b&gt;fill and stroke&lt;/b&gt; dialog if no flatten result after convert clip to paths." />
    <inkscape:path-effect
       effect="powerclip"
       id="path-effect16116"
       is_visible="true"
       lpeversion="1"
       inverse="true"
       flatten="false"
       hide_clip="false"
       message="Use fill-rule evenodd on &lt;b&gt;fill and stroke&lt;/b&gt; dialog if no flatten result after convert clip to paths." />
    <inkscape:path-effect
       effect="powerclip"
       id="path-effect16076"
       is_visible="true"
       lpeversion="1"
       inverse="true"
       flatten="false"
       hide_clip="false"
       message="Use fill-rule evenodd on &lt;b&gt;fill and stroke&lt;/b&gt; dialog if no flatten result after convert clip to paths." />
    <inkscape:path-effect
       effect="powerclip"
       id="path-effect15963"
       is_visible="true"
       lpeversion="1"
       inverse="true"
       flatten="false"
       hide_clip="false"
       message="Use fill-rule evenodd on &lt;b&gt;fill and stroke&lt;/b&gt; dialog if no flatten result after convert clip to paths." />
    <inkscape:path-effect
       effect="powerclip"
       id="path-effect15408"
       is_visible="true"
       lpeversion="1"
       inverse="true"
       flatten="false"
       hide_clip="false"
       message="Use fill-rule evenodd on &lt;b&gt;fill and stroke&lt;/b&gt; dialog if no flatten result after convert clip to paths." />
    <linearGradient
       inkscape:collect="always"
       id="linearGradient11988">
      <stop
         style="stop-color:#eae3c3;stop-opacity:1"
         offset="0"
         id="stop11984" />
      <stop
         style="stop-color:#62552d;stop-opacity:1"
         offset="1"
         id="stop11986" />
    </linearGradient>
    <filter
       inkscape:collect="always"
       style="color-interpolation-filters:sRGB"
       id="filter13362"
       x="-0.14671987"
       y="-0.19437869"
       width="1.2934397"
       height="1.3887574">
      <feGaussianBlur
         inkscape:collect="always"
         stdDeviation="4.7838462"
         id="feGaussianBlur13364" />
    </filter>
    <clipPath
       clipPathUnits="userSpaceOnUse"
       id="clipPath16516">
      <path
         id="path16518"
         style="display:block;opacity:0.450011;fill:#95ffff;fill-opacity:0.988235;stroke-width:9.86499;stroke-opacity:0.988235"
         d="M 264.63842,-42.353023 A 28.134413,40.840549 0 0 1 236.504,-1.5124714 28.134413,40.840549 0 0 1 208.36959,-42.353023 a 28.134413,40.840549 0 0 1 28.13441,-40.84055 28.134413,40.840549 0 0 1 28.13442,40.84055 z" />
    </clipPath>
    <clipPath
       clipPathUnits="userSpaceOnUse"
       id="clipPath16665-7">
      <path
         id="path16667-5"
         style="opacity:0.650175;fill:#95ffff;fill-opacity:0.988235;stroke-width:9.86499;stroke-opacity:0.988235"
         d="m 157.33528,-111.32766 h 99.53664 v 88.385453 h -99.53664 z" />
    </clipPath>
    <clipPath
       clipPathUnits="userSpaceOnUse"
       id="clipPath16665-7-5">
      <path
         id="path16667-5-6"
         style="opacity:0.650175;fill:#95ffff;fill-opacity:0.988235;stroke-width:9.86499;stroke-opacity:0.988235"
         d="m 157.33528,-111.32766 h 99.53664 v 88.385453 h -99.53664 z" />
    </clipPath>
    <clipPath
       clipPathUnits="userSpaceOnUse"
       id="clipPath16842">
      <path
         id="path16844"
         style="display:inline;fill-opacity:0.986279;stroke:#eae3c3;stroke-width:2.79876;stroke-miterlimit:4;stroke-dasharray:none;stroke-opacity:0.988235"
         d="M 4.6703663,-139.72185 V 7.8526161 H 288.43339 V -139.72185 Z M 158.66096,-94.586095 c 20.82432,0 33.91729,6.3478 46.70723,9.40615 26.18494,6.26137 40.14132,12.08835 39.81564,14.95877 -0.20693,1.824101 -10.96005,6.753031 -27.45827,13.795031 -14.79272,6.31404 -33.59796,14.90503 -63.59766,14.90503 -6.55269,-0.0623 -17.76699,-1.28308 -32.33343,-3.45974 -9.65302,-1.44244 -17.53684,-5.24642 -28.68765,-6.35155 -10.07892,-0.99889 -23.65253,-1.92585 -28.56311,-1.62677 -9.98954,0.60841 -17.10968,-0.78448 -17.56069,-2.43603 0,-12.22357 48.21979,-39.190891 111.67794,-39.190891 z"
         inkscape:label="Eyelid"
         mask="none"
         clip-path="url(#clipPath16665-7-5)"
         transform="matrix(1.1308598,0,0,1.1308598,18.247896,39.57428)" />
    </clipPath>
    <clipPath
       clipPathUnits="userSpaceOnUse"
       id="clipPath19235">
      <path
         id="path19237"
         style="display:none;fill-opacity:0.986279;stroke:none;stroke-width:3.165;stroke-miterlimit:4;stroke-dasharray:none;stroke-opacity:0.988235"
         d="M -32.700732,-149.63048 V 32.511742 H 314.04157 V -149.63048 Z m 188.167762,55.70833 c 25.44613,0 41.445,7.834704 57.07358,11.609441 31.99651,7.728029 49.05041,14.919917 48.65245,18.462704 -0.25286,2.251377 -13.39256,8.334857 -33.55245,17.026369 -18.07586,7.793037 -41.05479,18.396376 -77.71272,18.396376 -8.00702,-0.07689 -21.71026,-1.583627 -39.50962,-4.270148 -11.795442,-1.780315 -21.429022,-6.475338 -35.054678,-7.839331 -12.315867,-1.232871 -28.902049,-2.376961 -34.9025,-2.007825 -12.20665,0.750924 -20.907055,-0.968235 -21.458163,-3.006643 0,-15.086812 58.921843,-48.370943 136.464101,-48.370943 z"
         inkscape:label="Eyelid"
         mask="none"
         clip-path="none" />
      <path
         id="lpe_path-effect19239"
         style="display:block;fill-opacity:0.986279;stroke:none;stroke-width:3.165;stroke-miterlimit:4;stroke-dasharray:none;stroke-opacity:0.988235"
         class="powerclip"
         d="M 139.7843,-118.82742 H 271.45043 V -8.875863 H 139.7843 Z M -32.700732,-149.63048 V 32.511742 H 314.04157 V -149.63048 Z m 188.167762,55.70833 c -77.542258,0 -136.464101,33.284131 -136.464101,48.370943 0.551108,2.038408 9.251513,3.757567 21.458163,3.006643 6.000451,-0.369136 22.586633,0.774954 34.9025,2.007825 13.625656,1.363993 23.259236,6.059016 35.054678,7.839331 17.79936,2.686521 31.5026,4.193258 39.50962,4.270148 36.65793,0 59.63686,-10.603339 77.71272,-18.396376 20.15989,-8.691512 33.29959,-14.774992 33.55245,-17.026369 0.39796,-3.542787 -16.65594,-10.734675 -48.65245,-18.462704 -15.62858,-3.774737 -31.62745,-11.609441 -57.07358,-11.609441 z" />
    </clipPath>
    <clipPath
       clipPathUnits="userSpaceOnUse"
       id="clipPath16665-7-9">
      <path
         id="path16667-5-1"
         style="opacity:0.650175;fill:#95ffff;fill-opacity:0.988235;stroke-width:9.86499;stroke-opacity:0.988235"
         d="m 157.33528,-111.32766 h 99.53664 v 88.385453 h -99.53664 z" />
    </clipPath>
    <clipPath
       clipPathUnits="userSpaceOnUse"
       id="clipPath19602">
      <path
         id="path19604"
         style="display:none;fill-opacity:0.986279;stroke:#eae3c3;stroke-width:2.79876;stroke-miterlimit:4;stroke-dasharray:none;stroke-opacity:0.988235"
         d="M 4.6703663,-139.72185 V 7.8526161 H 288.43339 V -139.72185 Z M 158.66096,-94.586095 c 20.82432,0 33.91729,6.3478 46.70723,9.40615 26.18494,6.26137 40.14132,12.08835 39.81564,14.95877 -0.20693,1.824101 -10.96005,6.753031 -27.45827,13.795031 -14.79272,6.31404 -33.59796,14.90503 -63.59766,14.90503 -6.55269,-0.0623 -17.76699,-1.28308 -32.33343,-3.45974 -9.65302,-1.44244 -17.53684,-5.24642 -28.68765,-6.35155 -10.07892,-0.99889 -23.65253,-1.92585 -28.56311,-1.62677 -9.98954,0.60841 -17.10968,-0.78448 -17.56069,-2.43603 0,-12.22357 48.21979,-39.190891 111.67794,-39.190891 z"
         inkscape:label="Eyelid"
         mask="none"
         clip-path="url(#clipPath16665-7)"
         transform="matrix(1.1308598,0,0,1.1308598,-24.035696,12.068558)" />
      <path
         id="lpe_path-effect19606"
         style="display:inline;fill-opacity:0.986279;stroke:#eae3c3;stroke-width:2.79876;stroke-miterlimit:4;stroke-dasharray:none;stroke-opacity:0.988235"
         class="powerclip"
         d="m 139.8995,-106.88774 h 56.2215 v 82.742573 H 139.8995 Z M 4.6703663,-139.72185 V 7.8526161 H 288.43339 V -139.72185 Z M 158.66096,-94.586095 c -63.45815,0 -111.67794,26.967321 -111.67794,39.190891 0.45101,1.65155 7.57115,3.04444 17.56069,2.43603 4.91058,-0.29908 18.48419,0.62788 28.56311,1.62677 11.15081,1.10513 19.03463,4.90911 28.68765,6.35155 14.56644,2.17666 25.78074,3.39744 32.33343,3.45974 29.9997,0 48.80494,-8.59099 63.59766,-14.90503 16.49822,-7.042 27.25134,-11.97093 27.45827,-13.795031 0.32568,-2.87042 -13.6307,-8.6974 -39.81564,-14.95877 -12.78994,-3.05835 -25.88291,-9.40615 -46.70723,-9.40615 z" />
    </clipPath>
    <radialGradient
       inkscape:collect="always"
       xlink:href="#linearGradient11988"
       id="radialGradient4426"
       gradientUnits="userSpaceOnUse"
       gradientTransform="matrix(1.0245659,-0.0273954,0.0227303,0.84955599,-165.09703,-3.0676512)"
       cx="365.90695"
       cy="-35.438076"
       fx="365.90695"
       fy="-35.438076"
       r="44.338203"
       spreadMethod="pad" />
  </defs>
  <g
     inkscape:groupmode="layer"
     id="layer3"
     inkscape:label="Eyeball"
     style="display:inline"
     transform="translate(-144.7843,113.82742)">
    <g
       id="g16715"
       inkscape:label="Side Eye"
       style="display:inline">
      <rect
         style="display:inline;opacity:1;fill:#000000;fill-opacity:0.988235;stroke:none;stroke-width:9.86497;stroke-miterlimit:4;stroke-dasharray:none;stroke-opacity:0.988235"
         id="rect16868"
         width="176.60059"
         height="99.951553"
         x="89.799637"
         y="-113.82742" />
      <path
         id="path19228"
         style="display:inline;opacity:1;fill:#fffffd;fill-opacity:0.988235;stroke:none;stroke-width:9.86499;stroke-opacity:0.988235"
         d="m 153.88845,-113.82742 h 112.56198 v 99.951557 H 153.88845 l -0.17916,-19.448501 c -4.33926,-5.901129 -9.52437,-17.042586 -8.86851,-31.027481 -0.53375,-10.728447 4.23049,-22.803797 9.00634,-28.627779 z"
         sodipodi:nodetypes="cccccccc"
         clip-path="url(#clipPath19235)"
         inkscape:path-effect="#path-effect19239"
         inkscape:original-d="m 153.88845,-113.82742 h 112.56198 v 99.951557 H 153.88845 l -0.17916,-19.448501 c -4.33926,-5.901129 -9.52437,-17.042586 -8.86851,-31.027481 -0.53375,-10.728447 4.23049,-22.803797 9.00634,-28.627779 z"
         inkscape:label="Sclera" />
      <g
         id="g19600"
         clip-path="url(#clipPath19602)"
         inkscape:path-effect="#path-effect19606">
        <g
           id="g14602"
           inkscape:label="window"
           transform="translate(-63.470092,-20.753771)"
           clip-path="url(#clipPath16516)"
           style="display:inline">
          <ellipse
             style="opacity:1;mix-blend-mode:normal;fill:url(#radialGradient4426);fill-opacity:1;stroke:none;stroke-width:0.765"
             id="path9854"
             cx="210.25288"
             cy="-44.76268"
             rx="44.338203"
             ry="36.371284"
             inkscape:label="Iris" />
          <ellipse
             style="display:inline;opacity:1;fill:#201823;fill-opacity:0.988235;stroke:none;stroke-width:0.765"
             id="path2440"
             cx="208.81627"
             cy="-43.099415"
             rx="8.1930428"
             ry="7.5367999"
             inkscape:label="Pupil" />
        </g>
        <g
           id="g14598"
           inkscape:label="Light"
           transform="translate(-42.283592,-27.505722)"
           style="display:inline;opacity:1"
           clip-path="url(#clipPath16842)">
          <ellipse
             style="opacity:0.49461;mix-blend-mode:normal;fill:#ffffff;fill-opacity:0.988235;stroke:none;stroke-width:3.62636;stroke-miterlimit:4;stroke-dasharray:none;stroke-opacity:0.988235;filter:url(#filter13362)"
             id="path13280"
             cx="261.0798"
             cy="-41.993404"
             rx="39.126369"
             ry="29.533154"
             transform="matrix(0.85227056,0,0,0.89377216,21.594372,1.4308975)" />
          <ellipse
             style="opacity:1;fill:#ffffff;fill-opacity:0.988235;stroke:none;stroke-width:3.165;stroke-miterlimit:4;stroke-dasharray:none;stroke-opacity:0.988235"
             id="path14162"
             cx="230.65086"
             cy="-37.855423"
             rx="7.379343"
             ry="6.7693377" />
        </g>
      </g>
      <path
         id="rect2765-3-2"
         style="display:inline;fill-opacity:0.986279;stroke:#eae3c3;stroke-width:2.79876;stroke-miterlimit:4;stroke-dasharray:none;stroke-opacity:0.988235"
         d="M 4.6703663,-139.72185 V 7.8526161 H 288.43339 V -139.72185 Z M 158.66096,-94.586095 c 20.82432,0 33.91729,6.3478 46.70723,9.40615 26.18494,6.26137 40.14132,12.08835 39.81564,14.95877 -0.20693,1.824101 -10.96005,6.753031 -27.45827,13.795031 -14.79272,6.31404 -33.59796,14.90503 -63.59766,14.90503 -6.55269,-0.0623 -17.76699,-1.28308 -32.33343,-3.45974 -9.65302,-1.44244 -17.53684,-5.24642 -28.68765,-6.35155 -10.07892,-0.99889 -23.65253,-1.92585 -28.56311,-1.62677 -9.98954,0.60841 -17.10968,-0.78448 -17.56069,-2.43603 0,-12.22357 48.21979,-39.190891 111.67794,-39.190891 z"
         inkscape:label="Eyelid"
         mask="none"
         clip-path="url(#clipPath16665-7-9)"
         transform="matrix(1.1308598,0,0,1.1308598,-24.035697,12.068557)" />
    </g>
  </g>
</svg>
